# xmcd
#
# Track frame offsets:
#	150
#	9477
#	22410
#	32310
#	44910
#	58020
#	68890
#	82127
#	100905
#	112595
#
# Disc length: 1668 seconds
#
# Revision: 3
# Processed by: cddbd v1.5.1PL0 Copyright (c) Steve Scherf et al.
# Submitted via: audiograbber 1.83.01
#
DISCID=8106820a
DTITLE=Pride, Charley - The Hit Collection - Pride, Charley - The Hit Collectio
DTITLE=n
DYEAR=1996
DGENRE=Country
TTITLE0=Kiss An Angel Good Morning
TTITLE1=I Don't Think She's In Love Anymore
TTITLE2=Someone Loves You Honey
TTITLE3=Hope You're Feelin' Me (Like I'm Feelin' You)
TTITLE4=I'm So Afraid Of Losing You Again
TTITLE5=Is Anybody Goin' To San Antone
TTITLE6=All I Have To Offer You (Is Me)
TTITLE7=Where Do I Put Her Memory
TTITLE8=She's Just An Old Love Turned Memory
TTITLE9=Crystal Chandeliers
EXTD=
EXTT0=
EXTT1=
EXTT2=
EXTT3=
EXTT4=
EXTT5=
EXTT6=
EXTT7=
EXTT8=
EXTT9=
PLAYORDER=
